<svg viewbox="0 0 219 36" fill="none" xmlns="http://www.w3.org/2000/svg"><path d="M72.076 32.4h4.522l3.773-13.306L84.172 32.4h4.522l5.645-20.16h-4.176l-3.86 14.947L82.07 12.24h-3.398l-4.205 14.947-3.86-14.947h-4.175l5.644 20.16zM101.609 32.803c4.234 0 7.632-3.312 7.632-7.603s-3.398-7.604-7.632-7.604c-4.233 0-7.603 3.313-7.603 7.604 0 4.29 3.37 7.603 7.603 7.603zm0-3.629c-2.188 0-3.888-1.642-3.888-3.974 0-2.333 1.7-3.975 3.888-3.975 2.218 0 3.917 1.642 3.917 3.975 0 2.332-1.699 3.974-3.917 3.974zM115.57 20.477V18h-3.715v14.4h3.715v-6.883c0-3.024 2.448-3.889 4.378-3.658v-4.147c-1.815 0-3.629.806-4.378 2.765zM135.397 32.4l-5.961-7.287L135.224 18h-4.435l-4.953 6.336V12.24h-3.716V32.4h3.716v-6.538l5.241 6.538h4.32z" fill="#2D3748"/><path fill-rule="evenodd" clip-rule="evenodd" d="M51.493 13.925l-9.238-5.333v24.774h10.8v2.4H.255v-2.4h4.8V18.103L.582 19.22 0 16.893l25.307-6.327h3.747c-.414.98-.688 2.015-.816 3.07l-.579 4.77 6.196-3.577v18.537h6V8.593l-9.235 5.332a9.002 9.002 0 013.078-5.759h-4.942a8.986 8.986 0 017.974-3.567L30.02.725a8.985 8.985 0 018.035.482 8.958 8.958 0 013.002 2.817 8.953 8.953 0 013-2.817 8.988 8.988 0 018.036-.482l-6.711 3.874a8.986 8.986 0 017.976 3.567h-4.944a8.999 8.999 0 013.08 5.76zm-22.438 7.44h-7.2v12h7.2v-12zm-13.2 2.4a2.4 2.4 0 11-4.8.001 2.4 2.4 0 014.8 0z" fill="#667EEA"/><path d="M144.107 32.803c2.822 0 5.27-1.497 6.509-3.744l-3.226-1.843c-.576 1.18-1.814 1.9-3.312 1.9-2.217 0-3.859-1.64-3.859-3.916 0-2.304 1.642-3.946 3.859-3.946 1.469 0 2.707.75 3.283 1.93l3.197-1.872c-1.181-2.218-3.629-3.715-6.451-3.715-4.378 0-7.603 3.312-7.603 7.603s3.225 7.603 7.603 7.603zM163.3 18v1.7c-1.037-1.297-2.592-2.103-4.695-2.103-3.83 0-6.998 3.312-6.998 7.603s3.168 7.603 6.998 7.603c2.103 0 3.658-.806 4.695-2.102V32.4h3.715V18H163.3zm-4.003 11.26c-2.276 0-3.975-1.64-3.975-4.06s1.699-4.06 3.975-4.06c2.304 0 4.003 1.64 4.003 4.06s-1.699 4.06-4.003 4.06zM178.621 21.571V18h-3.255v-4.032l-3.715 1.123V18h-2.506v3.571h2.506v5.99c0 3.889 1.757 5.415 6.97 4.839v-3.37c-2.132.116-3.255.087-3.255-1.468v-5.99h3.255zM183.083 16.272c1.267 0 2.304-1.037 2.304-2.275 0-1.239-1.037-2.304-2.304-2.304-1.238 0-2.275 1.066-2.275 2.304a2.299 2.299 0 002.275 2.275zM181.24 32.4h3.715V18h-3.715v14.4zM195.21 32.803c4.234 0 7.632-3.312 7.632-7.603s-3.398-7.603-7.632-7.603-7.603 3.312-7.603 7.603 3.369 7.603 7.603 7.603zm0-3.629c-2.189 0-3.888-1.641-3.888-3.974s1.699-3.974 3.888-3.974c2.218 0 3.917 1.641 3.917 3.974s-1.699 3.974-3.917 3.974zM213.462 17.597c-1.93 0-3.427.72-4.291 2.016V18h-3.716v14.4h3.716v-7.776c0-2.506 1.353-3.571 3.168-3.571 1.67 0 2.851 1.008 2.851 2.966V32.4h3.715v-8.842c0-3.83-2.39-5.961-5.443-5.961z" fill="#667EEA"/></svg>