<svg viewBox="0 0 20 20" fill="none" xmlns="http://www.w3.org/2000/svg">
<path fill-rule="evenodd" clip-rule="evenodd" d="M14.3199 12.9056L15.4165 14.0023C15.8277 13.9795 16.2465 14.1252 16.5607 14.4393L19.5607 17.4393C20.1464 18.0251 20.1464 18.9749 19.5607 19.5607C18.9749 20.1464 18.0251 20.1464 17.4393 19.5607L14.4393 16.5607C14.1252 16.2465 13.9795 15.8277 14.0023 15.4165L12.9056 14.3199C11.551 15.3729 9.84871 16 8 16C3.58172 16 0 12.4183 0 8C0 3.58172 3.58172 0 8 0C12.4183 0 16 3.58172 16 8C16 9.84871 15.3729 11.551 14.3199 12.9056ZM8 14C11.3137 14 14 11.3137 14 8C14 4.68629 11.3137 2 8 2C4.68629 2 2 4.68629 2 8C2 11.3137 4.68629 14 8 14Z"/>
</svg>
